<svg width="640" height="500" viewBox="0 0 640 500"
xmlns="http://www.w3.org/2000/svg" xmlns:xlink="http://www.w3.org/1999/xlink"
font-size="19" text-anchor="middle" dominant-baseline="middle"
style="font-family: Georgia, serif;">
	<style>
        .fnote { fill: white; transition: fill 8s; cursor: pointer; font-size: 17px; }
        .fnote.glowing { fill: #fbc243; transition: fill 0s; }
        .fnote text { fill: black; }
    </style>
	<defs>
		<g id="arrow">
            <path transform="translate(-99-55)" fill="none" stroke="#000" stroke-width="2" d="M86 43A11 11 0 0 1 86 63"/>
            <path transform="translate(-13) rotate(60)" fill="#000" d="M1 0 12 0 7 6"/>
		</g>
		<g id="freq">
			<ellipse stroke="#000" stroke-width="2" rx="27" ry="19"/>
		</g>
	</defs>
    <g fill="white" stroke="#6f8aa5" stroke-width="2">
        <rect class="fnote seq2" data-fq="220.0" height="65" width="69.87" x="32.72" y="420"/>
        <rect class="fnote seq2" data-fq="244.2" height="65" width="69.87" x="102.59" y="420"/>
        <rect class="fnote seq2" data-fq="274.7" height="65" width="69.87" x="172.46" y="420"/>
        <rect class="fnote seq2" data-fq="293.3" height="65" width="69.87" x="242.33" y="420"/>
        <rect class="fnote seq2" data-fq="325.6" height="65" width="69.87" x="312.2" y="420"/>
        <rect class="fnote seq2" data-fq="366.3" height="65" width="69.87" x="382.07" y="420"/>
        <rect class="fnote seq2" data-fq="412.0" height="65" width="69.87" x="451.94" y="420"/>
        <rect class="fnote seq2" data-fq="231.8" fill="#eee" height="43.33" width="39.49" x="76.26" y="420"/>
        <rect class="fnote seq2" data-fq="260.7" fill="#eee" height="43.33" width="39.49" x="159.3" y="420"/>
        <rect class="fnote seq2" data-fq="309.0" fill="#eee" height="43.33" width="39.49" x="282.58" y="420"/>
        <rect class="fnote seq2" data-fq="347.7" fill="#eee" height="43.33" width="39.49" x="361.57" y="420"/>
        <rect class="fnote seq2" data-fq="391.1" fill="#eee" height="43.33" width="39.49" x="442.07" y="420"/>
        <line x1="60" x2="540" y1="40" y2="40"/>
        <line x1="60" x2="540" y1="70" y2="70"/>
        <line x1="60" x2="540" y1="100" y2="100"/>
        <line x1="60" x2="540" y1="130" y2="130"/>
        <line x1="60" x2="540" y1="160" y2="160"/>
        <line x1="60" x2="540" y1="190" y2="190"/>
        <line x1="60" x2="540" y1="220" y2="220"/>
        <line x1="60" x2="540" y1="250" y2="250"/>
        <line x1="60" x2="540" y1="280" y2="280"/>
        <line x1="60" x2="540" y1="310" y2="310"/>
        <line x1="60" x2="540" y1="340" y2="340"/>
        <line x1="60" x2="540" y1="370" y2="370"/>
        <line x1="340" x2="340" y1="40" y2="410"/>
        <line x1="420" x2="420" y1="40" y2="410"/>
        <line x1="460" x2="460" y1="40" y2="410"/>
        <line x1="500" x2="500" y1="40" y2="410"/>
        <line x1="60" x2="60" y1="40" y2="410"/>
        <line x1="100" x2="100" y1="40" y2="410"/>
        <line x1="140" x2="140" y1="40" y2="410"/>
        <line x1="180" x2="180" y1="40" y2="410"/>
        <line x1="220" x2="220" y1="40" y2="410"/>
        <line x1="260" x2="260" y1="40" y2="410"/>
        <line x1="300" x2="300" y1="40" y2="410"/>
        <line x1="380" x2="380" y1="40" y2="410"/>
    </g>
    <!-- tspans to fix https://bugs.webkit.org/show_bug.cgi?id=139258 -->
	<g transform="translate(60 40)"   class="fnote seq1" data-fq="220.0"><use xlink:href="#freq" /><text><tspan dominant-baseline="middle">220</tspan></text></g>
	<g transform="translate(260 70)"  class="fnote seq1" data-fq="293.3"><use xlink:href="#freq" /><text><tspan dominant-baseline="middle">~293</tspan></text></g>
	<g transform="translate(460 100)" class="fnote seq1" data-fq="391.1"><use xlink:href="#freq" /><text><tspan dominant-baseline="middle">~391</tspan></text></g>
	<g transform="translate(180 130)" class="fnote seq1" data-fq="260.7"><use xlink:href="#freq" /><text><tspan dominant-baseline="middle">~261</tspan></text></g>
	<g transform="translate(380 160)" class="fnote seq1" data-fq="347.7"><use xlink:href="#freq" /><text><tspan dominant-baseline="middle">~348</tspan></text></g>
	<g transform="translate(100 190)" class="fnote seq1" data-fq="231.8"><use xlink:href="#freq" /><text><tspan dominant-baseline="middle">~232</tspan></text></g>
	<g transform="translate(300 220)" class="fnote seq1" data-fq="309.0"><use xlink:href="#freq" /><text><tspan dominant-baseline="middle">~309</tspan></text></g>
	<g transform="translate(500 250)" class="fnote seq1" data-fq="412.0"><use xlink:href="#freq" /><text><tspan dominant-baseline="middle">~412</tspan></text></g>
	<g transform="translate(220 280)" class="fnote seq1" data-fq="274.7"><use xlink:href="#freq" /><text><tspan dominant-baseline="middle">~275</tspan></text></g>
	<g transform="translate(420 310)" class="fnote seq1" data-fq="366.3"><use xlink:href="#freq" /><text><tspan dominant-baseline="middle">~366</tspan></text></g>
	<g transform="translate(140 340)" class="fnote seq1" data-fq="244.2"><use xlink:href="#freq" /><text><tspan dominant-baseline="middle">~244</tspan></text></g>
	<g transform="translate(340 370)" class="fnote seq1" data-fq="325.6"><use xlink:href="#freq" /><text><tspan dominant-baseline="middle">~326</tspan></text></g>
    <path d="m90,410l20,0l-10,10l-10,-10z" fill="#6f8aa5" stroke="#000" stroke-width="0"/>
    <path d="m50,410l20,0l-10,10l-10,-10z" fill="#6f8aa5" stroke="#000" stroke-width="0"/>
    <path d="m170,410l20,0l-10,10l-10,-10z" fill="#6f8aa5" stroke="#000" stroke-width="0"/>
    <path d="m130,410l20,0l-10,10l-10,-10z" fill="#6f8aa5" stroke="#000" stroke-width="0"/>
    <path d="m250,410l20,0l-10,10l-10,-10z" fill="#6f8aa5" stroke="#000" stroke-width="0"/>
    <path d="m210,410l20,0l-10,10l-10,-10z" fill="#6f8aa5" stroke="#000" stroke-width="0"/>
    <path d="m330,410l20,0l-10,10l-10,-10z" fill="#6f8aa5" stroke="#000" stroke-width="0"/>
    <path d="m290,410l20,0l-10,10l-10,-10z" fill="#6f8aa5" stroke="#000" stroke-width="0"/>
    <path d="m410,410l20,0l-10,10l-10,-10z" fill="#6f8aa5" stroke="#000" stroke-width="0"/>
    <path d="m370,410l20,0l-10,10l-10,-10z" fill="#6f8aa5" stroke="#000" stroke-width="0"/>
    <path d="m490,410l20,0l-10,10l-10,-10z" fill="#6f8aa5" stroke="#000" stroke-width="0"/>
    <path d="m450,410l20,0l-10,10l-10,-10z" fill="#6f8aa5" stroke="#000" stroke-width="0"/>
    <ellipse cx="540" cy="160" fill="#6f8aa5" rx="5" ry="5" stroke="#6f8aa5" stroke-width="0"/>
    <ellipse cx="540" cy="130" fill="#6f8aa5" rx="5" ry="5" stroke="#6f8aa5" stroke-width="0"/>
    <ellipse cx="540" cy="190" fill="#6f8aa5" rx="5" ry="5" stroke="#6f8aa5" stroke-width="0"/>
    <ellipse cx="540" cy="70" fill="#6f8aa5" rx="5" ry="5" stroke="#6f8aa5" stroke-width="0"/>
    <ellipse cx="540" cy="40" fill="#6f8aa5" rx="5" ry="5" stroke="#6f8aa5" stroke-width="0"/>
    <ellipse cx="540" cy="100" fill="#6f8aa5" rx="5" ry="5" stroke="#6f8aa5" stroke-width="0"/>
    <ellipse cx="540" cy="340" fill="#6f8aa5" rx="5" ry="5" stroke="#6f8aa5" stroke-width="0"/>
    <ellipse cx="540" cy="310" fill="#6f8aa5" rx="5" ry="5" stroke="#6f8aa5" stroke-width="0"/>
    <ellipse cx="540" cy="370" fill="#6f8aa5" rx="5" ry="5" stroke="#6f8aa5" stroke-width="0"/>
    <ellipse cx="540" cy="250" fill="#6f8aa5" rx="5" ry="5" stroke="#6f8aa5" stroke-width="0"/>
    <ellipse cx="540" cy="220" fill="#6f8aa5" rx="5" ry="5" stroke="#6f8aa5" stroke-width="0"/>
    <ellipse cx="540" cy="280" fill="#6f8aa5" rx="5" ry="5" stroke="#6f8aa5" stroke-width="0"/>
    <g text-anchor="start">
    	<g transform="translate(566 55)"  ><use xlink:href="#arrow" /><text><tspan dominant-baseline="middle">×4/3</tspan></text></g>
    	<g transform="translate(566 85)"  ><use xlink:href="#arrow" /><text><tspan dominant-baseline="middle">×4/3</tspan></text></g>
    	<g transform="translate(566 115)" ><use xlink:href="#arrow" /><text><tspan dominant-baseline="middle">×2/3</tspan></text></g>
    	<g transform="translate(566 145)" ><use xlink:href="#arrow" /><text><tspan dominant-baseline="middle">×4/3</tspan></text></g>
    	<g transform="translate(566 175)" ><use xlink:href="#arrow" /><text><tspan dominant-baseline="middle">×2/3</tspan></text></g>
    	<g transform="translate(566 205)" ><use xlink:href="#arrow" /><text><tspan dominant-baseline="middle">×4/3</tspan></text></g>
    	<g transform="translate(566 235)" ><use xlink:href="#arrow" /><text><tspan dominant-baseline="middle">×4/3</tspan></text></g>
    	<g transform="translate(566 265)" ><use xlink:href="#arrow" /><text><tspan dominant-baseline="middle">×2/3</tspan></text></g>
    	<g transform="translate(566 295)" ><use xlink:href="#arrow" /><text><tspan dominant-baseline="middle">×4/3</tspan></text></g>
    	<g transform="translate(566 325)" ><use xlink:href="#arrow" /><text><tspan dominant-baseline="middle">×2/3</tspan></text></g>
    	<g transform="translate(566 355)" ><use xlink:href="#arrow" /><text><tspan dominant-baseline="middle">×4/3</tspan></text></g>
    </g>
</svg>
