<svg width="720" height="400" viewBox="-10 -10 720 400"
xmlns="http://www.w3.org/2000/svg" xmlns:xlink="http://www.w3.org/1999/xlink"
font-size="18" text-anchor="middle" dominant-baseline="middle"
style="font-family: Georgia, serif;">
	<style>
        .fnote { fill: #eeeeee; transition: fill 8s; cursor: pointer; }
        .fnote.glowing { fill: #fbc243; transition: fill 0s; }
        .fnote text { fill: black; }
    </style>
	<defs>
		<g id="cell">
			<rect height="50" width="90" x="-45" y="-25"/>
		</g>
		<linearGradient id="fadegrad">
			<stop offset="0%" stop-color="white" />
			<stop offset="60%" stop-color="white" />
			<stop offset="100%" stop-color="white" stop-opacity="0" />
		</linearGradient>
		<rect id="fader" width="120" height="750" fill="url(#fadegrad)" style="pointer-events: none;" />
	</defs>
	<rect fill="#aaaaff" x="-5" y="35" width="710" height="310"/>
    <!-- tspans to fix https://bugs.webkit.org/show_bug.cgi?id=139258 -->
	<g transform="translate(150 130)" class="fnote" data-fq="488.9"><use xlink:href="#cell"/><text><tspan dominant-baseline="middle">5/3/3</tspan></text></g>
	<g transform="translate(250 130)" class="fnote" data-fq="733.3"><use xlink:href="#cell"/><text><tspan dominant-baseline="middle">5/3</tspan></text></g>
	<g transform="translate(350 130)" class="fnote" data-fq="550.0"><use xlink:href="#cell"/><text><tspan dominant-baseline="middle">5</tspan></text></g>
	<g transform="translate(450 130)" class="fnote" data-fq="825.0"><use xlink:href="#cell"/><text><tspan dominant-baseline="middle">3×5</tspan></text></g>
	<g transform="translate(550 130)" class="fnote" data-fq="618.8"><use xlink:href="#cell"/><text><tspan dominant-baseline="middle">3×3×5</tspan></text></g>
	<g transform="translate(150 190)" class="fnote" data-fq="782.2"><use xlink:href="#cell"/><text><tspan dominant-baseline="middle">1/3/3</tspan></text></g>
	<g transform="translate(250 190)" class="fnote" data-fq="586.7"><use xlink:href="#cell"/><text><tspan dominant-baseline="middle">1/3</tspan></text></g>
	<g transform="translate(350 190)" class="fnote" data-fq="440.0"><use xlink:href="#cell"/><text><tspan dominant-baseline="middle">1</tspan></text></g>
	<g transform="translate(450 190)" class="fnote" data-fq="660.0"><use xlink:href="#cell"/><text><tspan dominant-baseline="middle">3</tspan></text></g>
	<g transform="translate(550 190)" class="fnote" data-fq="495.0"><use xlink:href="#cell"/><text><tspan dominant-baseline="middle">3×3</tspan></text></g>
	<g transform="translate(150 250)" class="fnote" data-fq="625.8"><use xlink:href="#cell"/><text><tspan dominant-baseline="middle">1/3/3/5</tspan></text></g>
	<g transform="translate(250 250)" class="fnote" data-fq="469.3"><use xlink:href="#cell"/><text><tspan dominant-baseline="middle">1/3/5</tspan></text></g>
	<g transform="translate(350 250)" class="fnote" data-fq="704.0"><use xlink:href="#cell"/><text><tspan dominant-baseline="middle">1/5</tspan></text></g>
	<g transform="translate(450 250)" class="fnote" data-fq="528.0"><use xlink:href="#cell"/><text><tspan dominant-baseline="middle">3/5</tspan></text></g>
	<g transform="translate(550 250)" class="fnote" data-fq="792.0"><use xlink:href="#cell"/><text><tspan dominant-baseline="middle">3×3/5</tspan></text></g>
    <g fill="#eeeeee">
		<use xlink:href="#cell" transform="translate(50 70)"/>
		<use xlink:href="#cell" transform="translate(150 70)"/>
		<use xlink:href="#cell" transform="translate(250 70)"/>
		<use xlink:href="#cell" transform="translate(350 70)"/>
		<use xlink:href="#cell" transform="translate(450 70)"/>
		<use xlink:href="#cell" transform="translate(550 70)"/>
		<use xlink:href="#cell" transform="translate(650 70)"/>
		<use xlink:href="#cell" transform="translate(50 130)"/>
		<use xlink:href="#cell" transform="translate(650 130)"/>
		<use xlink:href="#cell" transform="translate(50 190)"/>
		<use xlink:href="#cell" transform="translate(650 190)"/>
		<use xlink:href="#cell" transform="translate(50 250)"/>
		<use xlink:href="#cell" transform="translate(650 250)"/>
		<use xlink:href="#cell" transform="translate(50 310)"/>
		<use xlink:href="#cell" transform="translate(150 310)"/>
		<use xlink:href="#cell" transform="translate(250 310)"/>
		<use xlink:href="#cell" transform="translate(350 310)"/>
		<use xlink:href="#cell" transform="translate(450 310)"/>
		<use xlink:href="#cell" transform="translate(550 310)"/>
		<use xlink:href="#cell" transform="translate(650 310)"/>
    </g>
	<use xlink:href="#fader" transform="translate(-10 0)"/>
	<use xlink:href="#fader" transform="translate(710 390) rotate(180)"/>
	<use xlink:href="#fader" transform="translate(710 0) rotate(90)"/>
	<use xlink:href="#fader" transform="translate(-10 380) rotate(-90)"/>
    <g fill="none"  stroke="#7f7f7f" stroke-width="5">
    	<path d="m320,305l60,0l0,50l20,0l-50,30l-50,-30c0,0 20,0 20,0l0,-50z"/>
    	<path d="m320,75l0,-50l-20,0l50,-30l50,30c0,0 -20,0 -20,0c0,0 0,50 0,50l-60,0z"/>
    	<path d="m625,160l50,0l0,-20l30,50l-30,50c0,0 0,-20 0,-20c0,0 -50,0 -50,0l0,-60z"/>
    	<path d="m75,220l-50,0l0,20l-30,-50l30,-50l0,20l50,0l0,60z"/>
    </g>
    <text x="350" y="335"><tspan dominant-baseline="middle">/5</tspan></text>
    <text x="350" y="35"><tspan dominant-baseline="middle">×5</tspan></text>
    <text x="655" y="190"><tspan dominant-baseline="middle">×3</tspan></text>
    <text x="45" y="190"><tspan dominant-baseline="middle">/3</tspan></text>
</svg>
