<svg width="100" height="100" xmlns="http://www.w3.org/2000/svg">
  <g fill="#000" fill-rule="evenodd">
    <path d="M19.99 3.75c-1.32 0-1.99 1-1.99 2.51 0 1.43.73 2.5 1.99 2.5 1.42 0 1.95-1.26 1.95-2.5 0-1.29-.67-2.51-1.95-2.51M16.5 0h1.56v3.63h.03a2.57 2.57 0 0 1 2.1-1.12c2.23 0 3.31 1.7 3.31 3.78 0 1.91-.96 3.71-3.05 3.71-.96 0-1.98-.23-2.45-1.17h-.02v.98H16.5V0M28.98 5.07c-.12-.86-.73-1.33-1.57-1.33-.79 0-1.9.43-1.9 2.59 0 1.18.51 2.43 1.83 2.43.88 0 1.5-.6 1.64-1.62h1.52C30.22 8.98 29.11 10 27.34 10 25.2 10 24 8.42 24 6.33c0-2.15 1.13-3.83 3.4-3.83 1.6 0 2.95.83 3.1 2.57h-1.52M11.25 9.5H0L5.25 0H16.5l-5.25 9.5"/>
  </g>
</svg>
