<svg width="600" height="443" viewBox="0 0 600 443"
xmlns="http://www.w3.org/2000/svg" xmlns:xlink="http://www.w3.org/1999/xlink"
font-size="18" style="font-family: Georgia, serif;">
    <style>
        .trigger {
            cursor: pointer;
            user-select: none;
        }
        line, .trigger rect {
            stroke: #d6d6d6;
            fill: white;
            stroke-width: 3;
        }
        .trigger text { text-anchor: middle; }
        text { white-space: pre; }
    </style>
    <!-- Created with SVG-edit - https://github.com/SVG-Edit/svgedit-->
    <path d="m310,14l0,42l-10,27l0,343l-250,0l0,-343l196,-33l0,-36" fill="#e2e2ff" stroke="#d6d6d6" stroke-width="3"/>
    <path d="m366,14l0,36l184,33l0,343l-250,0l0,-343l10,-30l0,-39" fill="#ffe9d6" stroke="#d6d6d6" stroke-width="3"/>
    <g fill="white">
        <rect width="210" height="303" x="320" y="103"/>
        <rect width="210" height="303" x="70" y="103"/>
        <rect width="460" height="30" x="70" y="173"/>
        <rect width="460" height="30" x="70" y="253"/>
    </g>
    <text text-anchor="end" x="270" y="153">Chord 1 (1:02 - 1:40)</text>
    <text text-anchor="start" x="330" y="153">Chord 2 (1:40 - 2:15)</text>

    <text text-anchor="middle" x="300" y="193">Seed tones (relative to 800Hz):</text>
    <line x1="70" x2="530" y1="203" y2="203"/>
    <line x1="70" x2="530" y1="173" y2="173"/>
    <text text-anchor="end" x="270" y="233">1,  8/9</text>
    <text text-anchor="start" x="330" y="233">1,  6/5</text>
    
    <text text-anchor="middle" x="300" y="273">Derived tones (relative to 800Hz):</text>
    <line x1="70" x2="530" y1="283" y2="283"/>
    <line x1="70" x2="530" y1="253" y2="253"/>

    <text text-anchor="end" x="270" y="313">2/3,  8/9,  4/3,</text>
    <text text-anchor="end" x="270" y="343">1,  4/9,  1/3,  2,</text>
    <text text-anchor="end" x="270" y="373">5/9,  2/9,  7/9</text>

    <text text-anchor="start" x="330" y="313">1/2,  3/5,  3/4,  1,</text>
    <text text-anchor="start" x="330" y="343">2/5,  3/10,  9/10,</text>
    <text text-anchor="start" x="330" y="373">4/5,  3/2,  6/5</text>
</svg>
